# xmcd
#
# Track frame offsets:
#	150
#	14757
#	31889
#	55254
#	73740
#	87564
#	105865
#	120750
#	131450
#	150969
#	171047
#	190255
#	207571
#	224842
#	244569
#	259915
#	271567
#	289503
#	309921
#	327776
#	345189
#
# Disc length: 4774 seconds
#
# Revision: 1
# Processed by: cddbd v1.5.2PL0 Copyright (c) Steve Scherf et al.
# Submitted via: audiograbber 1.83.01
#
DISCID=1e12a415
DTITLE=Various Artist - Gold Country - Disc Two
DYEAR=2007
DGENRE=Country
TTITLE0=The Mavericks - O What A Thrill
TTITLE1=Toby Keith - As Good As I Once Was
TTITLE2=Trisha Yearwood - Georgia Rain
TTITLE3=Shooter Jennings - Gone To Carolina
TTITLE4=Tania Kernaghan - Harley McTaggart
TTITLE5=Adam Brand - Open Ended Heartache
TTITLE6=David Lee Murphey - Party Crowd
TTITLE7=Joe Nichols - What`s A Guy Gotta Do
TTITLE8=Josh Arnold - The Man I Used To Be
TTITLE9=Patty Smyth featuring Don Henley - Sometimes Love Just Ain`t Enough
TTITLE10=Lucinda Williams - World Without Tears
TTITLE11=Sara Storer - Back Out Back
TTITLE12=The McClymonts - Something That My Heart Does
TTITLE13=Sammy Kershaw - Love Of My Life
TTITLE14=Gina Jeffreys - Dancin` With Elvis
TTITLE15=Steve Earle - Guitar Town
TTITLE16=Rebecca Lynn Howard - Forgive
TTITLE17=Tim O`Reagan - These Things
TTITLE18=Glen Phillips - Cleareyed
TTITLE19=Katrina Elam - I Want A Cowboy
TTITLE20=Adam Harvey - Beauty`s In The Eye (Of The Beerholder)
EXTD=
EXTT0=
EXTT1=
EXTT2=
EXTT3=
EXTT4=
EXTT5=
EXTT6=
EXTT7=
EXTT8=
EXTT9=
EXTT10=
EXTT11=
EXTT12=
EXTT13=
EXTT14=
EXTT15=
EXTT16=
EXTT17=
EXTT18=
EXTT19=
EXTT20=
PLAYORDER=
